HIERARCHY
ROOT Hips
{
  OFFSET 3.13124 94.3669 -3.18751
  CHANNELS  6 Xposition Yposition Zposition Zrotation Xrotation Yrotation
  JOINT LeftUpLeg
  {
    OFFSET 8.64259 1.95398 -2.38835
    CHANNELS 3 Zrotation Xrotation Yrotation
    JOINT LeftLeg
    {
      OFFSET 43.7702 0 0
      CHANNELS 3 Zrotation Xrotation Yrotation
      JOINT LeftFoot
      {
        OFFSET 40.6238 0 0
        CHANNELS 3 Zrotation Xrotation Yrotation
        JOINT LeftToeBase
        {
          OFFSET 12.7242 0 0
          CHANNELS 3 Zrotation Xrotation Yrotation
          End Site
          {
            OFFSET 0 0 0
          }
        }
      }
    }
  }
  JOINT RightUpLeg
  {
    OFFSET -8.2249 1.95398 -2.59336
    CHANNELS 3 Zrotation Xrotation Yrotation
    JOINT RightLeg
    {
      OFFSET 43.5653 0 0
      CHANNELS 3 Zrotation Xrotation Yrotation
      JOINT RightFoot
      {
        OFFSET 40.6238 0 0
        CHANNELS 3 Zrotation Xrotation Yrotation
        JOINT RightToeBase
        {
          OFFSET 12.7242 0 0
          CHANNELS 3 Zrotation Xrotation Yrotation
          End Site
          {
            OFFSET 0 0 0
          }
        }
      }
    }
  }
  JOINT Spine
  {
    OFFSET 0.165834 0.87714 6.61349
    CHANNELS 3 Zrotation Xrotation Yrotation
    JOINT Spine1
    {
      OFFSET 7.38962 1.71661e-005 0
      CHANNELS 3 Zrotation Xrotation Yrotation
      JOINT Spine2
      {
        OFFSET 11.9445 1.14441e-005 0
        CHANNELS 3 Zrotation Xrotation Yrotation
        JOINT Spine3
        {
          OFFSET 14.7254 4.19617e-005 0
          CHANNELS 3 Zrotation Xrotation Yrotation
          JOINT Spine4
          {
            OFFSET 10.9679 0 0
            CHANNELS 3 Zrotation Xrotation Yrotation
            JOINT RightShoulder
            {
              OFFSET 2.46616 -1.6653 3.69651
              CHANNELS 3 Zrotation Xrotation Yrotation
              JOINT RightArm
              {
                OFFSET 13.0012 0 0
                CHANNELS 3 Zrotation Xrotation Yrotation
                JOINT RightForeArm
                {
                  OFFSET 28.7848 1.52588e-005 0
                  CHANNELS 3 Zrotation Xrotation Yrotation
                  JOINT RightHand
                  {
                    OFFSET 26.5688 1.52588e-005 0
                    CHANNELS 3 Zrotation Xrotation Yrotation
                    End Site
                    {
                      OFFSET 0 0 0
                    }
                  }
                }
              }
            }
            JOINT LeftShoulder
            {
              OFFSET 2.38034 -1.29275 -3.75231
              CHANNELS 3 Zrotation Xrotation Yrotation
              JOINT LeftArm
              {
                OFFSET 16.3182 6.10352e-005 0
                CHANNELS 3 Zrotation Xrotation Yrotation
                JOINT LeftForeArm
                {
                  OFFSET 27.0901 0 0
                  CHANNELS 3 Zrotation Xrotation Yrotation
                  JOINT LeftHand
                  {
                    OFFSET 24.5451 1.52588e-005 0
                    CHANNELS 3 Zrotation Xrotation Yrotation
                    End Site
                    {
                      OFFSET 0 0 0
                    }
                  }
                }
              }
            }
            JOINT Neck
            {
              OFFSET 5.0226 -0.0266342 0
              CHANNELS 3 Zrotation Xrotation Yrotation
              JOINT Head
              {
                OFFSET 6.69363 2.86102e-005 0
                CHANNELS 3 Zrotation Xrotation Yrotation
                End Site
                {
                  OFFSET 0 0 0
                }
              }
            }
          }
        }
      }
    }
  }
}
MOTION
Frames:	18
Frame Time:	0.0333333
66.3769 91.1945 5.84614 102.232 -78.5433 100.817 -169.784 11.6555 93.2329 -29.5825 -4.46495 0.617541 60.5959 -6.00649 -3.90012 28.7808 4.79547e-006 -8.53711e-006 -178.514 22.1395 76.9116 -55.0085 0.981915 -0.511786 44.3129 -2.12893 -1.1387 28.7808 1.47974e-005 3.24904e-005 0.795275 7.50132 -88.4863 11.9007 1.86786 0.447614 0.231017 1.8857 0.365205 -22.3123 1.64714 0.987865 -2.29968 1.64714 0.987858 76.2808 -43.6873 -124.383 24.3557 2.61474 -9.12821 31.757 -45.5107 -137.5 30.2785 2.48393 3.98351 -102.083 -53.1053 62.2046 -23.0439 25.571 -8.46936 19.2609 -15.5556 -128.717 4.27946 -2.15776 -38.8993 -7.08321 8.32279 2.82538 -38.1625 5.03879 9.89641 
64.9059 91.4327 6.96804 102.65 -77.7649 101.563 -169.261 10.7346 94.5972 -28.2824 -3.97309 0.842943 59.8676 -6.12787 -4.04594 28.7808 4.79547e-006 -8.53711e-006 -179.502 19.3134 74.6044 -47.9869 3.7379 -0.2402 45.5596 -4.94105 -3.39904 28.7808 1.47974e-005 3.24904e-005 0.744011 7.43055 -88.7056 12.0368 1.71621 0.336579 0.366992 1.72951 0.260317 -22.1755 1.5347 0.839547 -2.16288 1.5347 0.839541 76.5383 -43.309 -124.179 24.2506 1.67185 -8.8276 29.2564 -43.6843 -139.245 29.6598 1.89986 2.0252 -102.035 -52.8302 62.1673 -22.758 26.7969 -8.13431 18.9137 -15.9341 -129.958 4.73375 -2.09687 -35.8634 -7.35945 8.25992 2.15714 -37.4016 4.99531 10.2357 
63.4299 91.4521 8.10736 102.016 -76.5826 100.76 -168.986 9.83313 95.4752 -26.7607 -3.17332 1.1032 59.7205 -6.37198 -4.20118 28.7808 4.79547e-006 -8.53711e-006 178.958 16.3929 72.3787 -41.5381 -4.30792 -0.558378 45.7218 -6.24003 -4.43238 28.7808 1.47974e-005 3.24904e-005 0.640567 7.3799 -88.82 12.1275 1.52717 0.583126 0.457395 1.55155 0.514974 -22.0822 1.27988 1.01762 -2.06954 1.27987 1.0176 76.3458 -44.0928 -124.076 24.0003 -0.108651 -8.48215 25.5241 -40.9849 -141.943 28.8764 1.15378 -0.602124 -101.059 -51.809 63.1594 -21.9998 28.3266 -11.5242 20.1583 -16.2776 -128.643 6.97401 -2.6626 -35.0588 -5.45389 7.89974 -1.47689 -38.1515 4.09201 12.4859 
61.6566 91.2413 9.31139 102.252 -75.3669 100.804 -168.458 9.08833 96.7145 -25.7768 -1.17507 1.52098 59.8925 -7.12736 -4.64574 28.7808 4.79547e-006 -8.53711e-006 177.049 12.8206 71.3491 -35.2916 -15.1991 -1.02751 46.5994 -4.41127 -2.94542 28.7808 1.47974e-005 3.24904e-005 0.617163 7.27747 -89.0343 12.3283 1.41855 0.504955 0.65809 1.43935 0.441826 -21.8811 1.20138 0.909227 -1.86843 1.20138 0.909231 77.0236 -43.0611 -123.553 23.4878 -2.60336 -8.67237 22.4291 -38.9952 -144.446 23.9237 0.720552 -1.68627 -100.741 -52.1747 63.7412 -21.1137 31.3088 -14.3486 19.1152 -15.3067 -128.483 10.2193 -3.5123 -34.9013 -6.63018 7.77162 -0.292872 -35.9766 4.36442 11.6436 
59.4686 90.8894 10.5655 102.358 -74.1348 100.618 -167.845 8.71437 98.1703 -25.0522 1.08814 1.9401 59.9104 -8.00266 -5.18108 28.7808 4.79547e-006 -8.53711e-006 174.88 7.81523 71.4705 -27.6684 -20.0786 -1.16527 52.2326 2.34407 2.04598 28.7808 1.47974e-005 3.24904e-005 0.606056 7.17476 -89.1445 12.5293 1.38162 0.569177 0.859004 1.40531 0.507799 -21.6795 1.14668 0.958127 -1.66687 1.14667 0.958126 77.0477 -42.8742 -123.608 23.0395 -4.10781 -8.87083 21.1691 -38.9673 -145.987 19.5273 0.741538 -0.774488 -99.87 -52.2018 64.9846 -19.7875 33.5967 -14.3228 15.4836 -14.085 -132.383 11.0782 -3.431 -32.1703 -7.17496 7.67424 -0.69119 -34.6187 4.4122 11.7287 
56.8186 90.3714 11.6675 101.481 -72.4087 99.3083 -167.56 9.30835 99.4467 -24.9957 3.13715 2.54735 59.4239 -8.88496 -5.78894 28.7808 4.79547e-006 -8.53711e-006 174.077 4.52842 72.2282 -24.8719 -20.5613 -1.1679 60.4099 4.95023 3.19909 28.7808 1.47974e-005 3.24904e-005 0.573908 7.10935 -89.15 12.6573 1.32698 0.734772 0.986893 1.35802 0.675646 -21.5502 1.04463 1.09957 -1.53756 1.04461 1.09954 76.9888 -43.0303 -123.62 22.3864 -6.15505 -9.70661 20.3722 -39.1449 -147.093 15.2277 0.650784 -0.222059 -98.8539 -52.1951 66.4225 -18.0786 35.1973 -13.1166 9.62876 -10.695 -138.278 10.0436 -2.91063 -29.9459 -7.05523 7.72581 -1.64124 -33.7374 4.5153 12.1481 
53.8347 89.9219 12.7089 101.975 -70.4636 99.6181 -167.212 10.4276 101.118 -25.8865 5.39518 3.3976 57.8136 -9.69086 -6.53907 28.7808 4.79547e-006 -8.53711e-006 174.95 3.12635 74.7238 -26.2894 -14.2851 -0.849797 66.209 3.95638 2.14696 28.7808 1.47974e-005 3.24904e-005 0.564379 7.14924 -89.0729 12.5763 1.3021 0.810009 0.905817 1.33615 0.751809 -21.6307 1.0007 1.1646 -1.61808 1.00069 1.16459 76.809 -43.3631 -123.731 21.7084 -8.18206 -10.6027 19.0016 -38.3887 -148.403 11.9361 0.556934 0.233725 -98.4299 -52.7927 67.2253 -17.1864 34.7221 -10.5857 3.63193 -5.07021 -143.361 6.54698 -2.15405 -30.3896 -6.34658 7.67452 -2.5602 -33.2837 4.42088 12.7383 
50.6908 89.9116 13.6138 103.072 -68.2726 101.618 -166.611 12.0843 103.786 -26.7462 8.24046 4.50212 54.2032 -9.86078 -7.19216 28.7808 4.79547e-006 -8.53711e-006 176.233 1.52734 79.0264 -27.0889 -6.77402 -0.478787 68.5082 2.25785 1.1157 28.7808 1.47974e-005 3.24904e-005 0.576813 7.22745 -89.2782 12.423 1.22227 0.446556 0.752562 1.24034 0.392049 -21.7856 1.03729 0.795072 -1.77291 1.03728 0.795068 76.9149 -42.8354 -123.835 20.6718 -10.6637 -12.0274 17.0099 -37.2278 -150.352 5.77015 0.322754 1.27742 -98.7608 -54.2393 67.2333 -18.0153 32.9911 -6.70261 -1.33783 1.25158 -145.43 1.2675 -1.06469 -34.2185 -7.52979 7.76091 -1.00298 -31.4617 4.90629 11.5641 
47.8574 90.166 14.3012 102.146 -65.8909 100.973 -166.856 14.1605 104.865 -27.2495 10.0471 5.63052 49.4061 -8.8607 -7.24638 28.7808 4.79547e-006 -8.53711e-006 177.055 0.692296 81.9049 -27.0765 -3.21412 -0.29513 69.304 1.56797 0.728094 28.7808 1.47974e-005 3.24904e-005 0.493312 7.2444 -89.3304 12.3869 1.07523 0.494911 0.716363 1.09594 0.446995 -21.8206 0.876783 0.795125 -1.80796 0.876792 0.795112 76.6168 -43.3757 -124.019 21.0715 -10.225 -10.6512 17.7211 -38.0822 -149.904 7.45283 0.290438 -0.616167 -97.278 -53.501 69.0903 -18.177 33.358 -7.10822 -3.78442 4.36659 -144.448 -0.0340965 -0.803623 -38.3096 -7.99408 7.78722 -2.90238 -30.7789 4.93197 12.354 
45.275 90.4354 14.9528 101.865 -63.0752 100.565 -167.622 15.8341 105.2 -27.2968 7.30522 5.87329 45.2153 -7.73059 -7.05742 28.7808 4.79547e-006 -8.53711e-006 177.775 0.12966 84.0917 -27.8857 -1.0461 -0.188312 69.236 1.23355 0.560405 28.7808 1.47974e-005 3.24904e-005 0.376262 7.25981 -89.3392 12.3551 0.863486 0.551799 0.68429 0.886998 0.514556 -21.8514 0.657343 0.788705 -1.83871 0.657332 0.788693 76.8371 -43.726 -123.505 20.8805 -12.0915 -10.1402 15.4301 -34.8468 -151.067 6.35201 0.121866 -2.65619 -97.0109 -51.9805 68.9886 -17.0137 35.8715 -9.16299 -4.24897 5.0239 -144.683 4.4082 -2.16064 -38.6538 -7.70373 7.30401 -3.23724 -31.6334 4.75317 10.9461 
43.0067 90.595 15.4817 100.55 -60.0415 99.5021 -168.353 17.4509 104.952 -27.2696 6.18055 6.59 43.9656 -4.21232 -4.27697 28.7808 4.79547e-006 -8.53711e-006 178.506 -0.0192169 86.5414 -28.041 2.48309 0.00520038 69.2163 1.60724 0.750596 28.7808 1.47974e-005 3.24904e-005 0.250641 7.22294 -89.472 12.4268 0.576222 0.554357 0.755886 0.600164 0.52938 -21.7788 0.382538 0.702986 -1.76614 0.382531 0.702972 77.3324 -44.0335 -122.583 20.0444 -14.7844 -11.1701 12.4995 -30.8886 -152.771 1.97659 -0.00909751 -4.49573 -97.5646 -50.7842 67.7587 -14.5451 38.4987 -14.6681 -1.27502 1.09578 -144.368 13.1182 -4.20311 -33.9015 -7.31057 6.86075 -4.22147 -32.1193 4.53597 10.2172 
40.9813 90.713 15.8698 100.054 -57.4697 99.0468 -168.572 18.3735 104.241 -27.7401 5.20059 5.9804 47.5433 -3.40393 -3.29507 28.7808 4.79547e-006 -8.53711e-006 179.361 0.0468731 88.615 -28.4256 5.77908 0.185585 68.9151 1.45207 0.678505 28.7808 1.47974e-005 3.24904e-005 0.140636 7.22752 -89.4527 12.4171 0.373823 0.596478 0.746101 0.398506 0.579363 -21.7881 0.179353 0.678061 -1.77548 0.179352 0.678059 77.6957 -44.9369 -121.609 18.9024 -18.2314 -12.9664 9.31945 -25.5881 -154.028 -2.32147 -0.00317577 -7.06632 -96.0189 -48.7915 69.4079 -12.7116 39.8793 -19.1633 0.972682 -1.7678 -143.477 18.1381 -4.89641 -30.4679 -6.18638 6.11773 -6.37808 -32.7303 3.82962 10.7174 
39.2777 90.8361 16.1557 99.7637 -56.3243 98.3744 -168.621 18.0395 102.712 -28.3104 3.07505 4.74025 50.5663 -2.71132 -2.53296 28.7808 4.79547e-006 -8.53711e-006 179.654 0.497486 89.6561 -28.7416 7.61276 0.286529 68.6351 0.979265 0.44116 28.7808 1.47974e-005 3.24904e-005 0.157017 7.15217 -89.5071 12.5686 0.364565 0.425786 0.897602 0.383532 0.409058 -21.6372 0.221902 0.517489 -1.62452 0.221893 0.517485 78.337 -44.5598 -120.764 17.5249 -21.5353 -16.0074 6.35022 -19.717 -154.338 -8.31139 0.161165 -7.88792 -96.5519 -49.0564 68.7154 -10.9187 41.6663 -24.6204 3.61509 -4.72029 -141.113 24.0415 -6.1789 -29.9062 -7.52599 5.93881 -5.01258 -30.3881 4.04213 9.30853 
37.8106 91.0189 16.4787 99.4671 -56.9226 97.6107 -168.887 16.9245 101.108 -29.7167 -3.14413 3.18659 52.6403 -1.93394 -1.82931 28.7808 4.79547e-006 -8.53711e-006 179.793 1.35903 90.0119 -29.0317 7.32504 0.262503 68.1031 0.515643 0.213654 28.7808 1.47974e-005 3.24904e-005 0.303334 7.05201 -89.5425 12.7712 0.609307 0.186716 1.10039 0.615139 0.159549 -21.4356 0.528745 0.362389 -1.42294 0.528731 0.362372 78.8225 -44.0378 -120.259 15.2463 -25.7276 -21.7855 2.74619 -12.0494 -153.272 -17.0738 0.370561 -7.91517 -97.1249 -49.9352 68.1658 -9.49789 42.8683 -30.4341 7.46235 -8.17199 -137.463 30.0315 -7.52453 -29.5776 -9.33551 5.89383 -2.91613 -27.161 4.38149 7.93194 
36.2409 91.184 16.6227 99.4864 -57.0773 97.9463 -169.339 16.4043 100.097 -33.3877 -10.3448 2.01797 55.4692 -0.7078 -0.829519 28.7808 4.79547e-006 -8.53711e-006 -179.764 1.86226 91.3371 -28.9889 7.54674 0.265242 67.106 0.246233 0.0933923 28.7808 1.47974e-005 3.24904e-005 0.353862 6.98515 -89.5855 12.9079 0.63054 -0.179616 1.23705 0.620189 -0.207202 -21.2993 0.655499 0.0182471 -1.28666 0.655492 0.0182259 79.0136 -44.0875 -119.942 13.7502 -27.1395 -25.5294 0.895358 -8.52003 -152.84 -21.8838 0.0733536 -5.63068 -97.2794 -50.2876 68.0524 -8.25178 43.1716 -36.0983 11.1679 -10.6504 -133.715 35.0695 -8.66191 -29.3224 -10.9128 5.92031 -1.67099 -24.2023 4.69065 7.13901 
34.8525 91.4341 16.8497 99.3246 -58.005 98.044 -169.615 15.9154 98.9342 -38.6464 -14.7162 1.11998 57.1911 0.427684 -0.0126871 28.7808 4.79547e-006 -8.53711e-006 -179.387 2.34927 92.3363 -28.4647 7.11064 0.229607 65.8097 -0.22205 -0.136738 28.7808 1.47974e-005 3.24904e-005 0.454156 6.91558 -89.5077 13.0522 0.738279 -0.483221 1.38139 0.716265 -0.51524 -21.1552 0.849369 -0.238976 -1.14254 0.84934 -0.239003 79.0988 -44.5615 -119.59 13.3465 -27.7709 -27.0925 -0.0548484 -6.61387 -152.011 -22.6837 0.0978277 -5.73529 -97.4809 -50.3743 67.7906 -7.80459 43.3233 -38.4844 13.1371 -11.7463 -131.86 36.6711 -9.07346 -29.3618 -11.2811 6.11049 -1.68257 -23.3646 4.87687 7.41447 
33.7315 91.6856 17.0278 99.7556 -59.209 98.2386 -169.662 14.5759 97.28 -43.747 -16.5027 0.094769 58.3572 0.567613 0.105317 28.7808 4.79547e-006 -8.53711e-006 -179.191 2.49091 92.6786 -27.9544 6.28131 0.176916 64.7035 -0.812694 -0.453515 28.7808 1.47974e-005 3.24904e-005 0.524541 6.89366 -89.3651 13.099 0.809095 -0.636104 1.42817 0.780343 -0.671108 -21.1085 0.962839 -0.36352 -1.09584 0.96284 -0.363533 78.7633 -45.0145 -119.896 12.6455 -28.4431 -28.7829 -0.796586 -5.27587 -151.665 -23.8755 -0.187991 -4.31012 -97.514 -50.0854 67.6465 -7.95934 43.1949 -38.4781 13.5411 -11.9937 -131.587 36.2522 -8.7308 -28.6505 -11.5199 6.2742 -1.94379 -22.8874 5.01652 7.7703 
32.7404 92.013 17.2836 100.811 -60.8769 99.0392 -169.483 12.6263 95.6633 -48.3709 -15.9737 -0.592208 57.6521 0.985578 0.342917 28.7808 4.79547e-006 -8.53711e-006 -178.983 2.35727 92.9461 -27.4805 4.95298 0.101645 63.1949 -1.34766 -0.751608 28.7808 1.47974e-005 3.24904e-005 0.61429 6.90468 -89.2115 13.083 0.891048 -0.788192 1.41208 0.854992 -0.826627 -21.1246 1.08672 -0.48394 -1.11197 1.08671 -0.483942 78.5257 -45.2318 -120.167 12.6934 -28.8496 -29.1734 -1.06068 -4.69139 -150.889 -23.6999 0.0527117 -5.48438 -97.5553 -49.9903 67.5607 -9.27761 42.665 -35.9741 11.6327 -10.5004 -132.064 32.427 -9.20877 -32.8119 -11.5697 6.51473 -2.11574 -22.8209 5.20979 8.13496 
